<?xml version="1.0" standalone="no"?><!DOCTYPE svg PUBLIC "-//W3C//DTD SVG 1.1//EN" "http://www.w3.org/Graphics/SVG/1.1/DTD/svg11.dtd"><svg t="1768882465711" class="icon" viewBox="0 0 1193 1024" version="1.1" xmlns="http://www.w3.org/2000/svg" p-id="13287" xmlns:xlink="http://www.w3.org/1999/xlink" width="298.25" height="256"><path d="M757.897005 487.150541l-59.698469 56.549185q-129.649351 124.155345-201.140394 124.155345-63.652314 0-101.374759-35.354734-36.917883-35.354734-36.917882-96.639339 0-61.284605 30.642302-117.856778 30.642302-57.353747 124.132358-187.784672 58.158308-80.915907 58.158308-117.856777 0-67.583172-91.949894-67.583172-99.765636 0-207.415975 66.020024-107.627352 65.974049-164.981098 146.912944-57.353747 80.157321-57.353747 155.579221 0 38.504018 20.412877 56.549185 21.217438 17.309568 43.998024 17.309568 67.583172 0 128.086203-84.869753 60.480043-85.628339 87.214475-168.911956 19.631302-65.997037 29.056167-82.52503 10.229426-17.263593 27.516006-17.263593 22.757599 0 22.757599 62.847753 0 124.132358-88.777623 227.070265-87.996049 102.937907-197.991111 102.937906-65.974049 0-93.490055-36.159296Q2.068873 453.358955 2.068873 413.268801q0-98.202487 78.571184-197.186549 78.571185-99.007049 197.209537-157.14237 119.419925-58.939882 223.139406-58.939882 101.351771 0 157.923944 54.22745 57.353747 53.422889 57.353747 135.924932 0 64.433889-40.848741 133.557222-40.871728 69.146321-106.868765 160.291653-35.354734 50.296592-52.641314 72.295605-17.28658 21.194451-17.286581 43.998024 0 22.757599 24.366722 22.757599 38.504018 0 175.210524-135.12037 137.48808-135.924932 243.575271-269.505141 86.432901-110.776635 148.499079-158.705518 62.066179-48.733444 87.996049-48.733444 14.137296 0 14.137297 13.37871 0 9.424864-11.011 20.435864-73.858753 74.640327-124.132358 169.69353-49.492031 94.294617-118.638351 295.435011-56.572173 164.222512-115.512055 250.632425-58.916895 85.651327-131.212499 140.637364-72.272617 54.22745-163.41795 84.869753-90.340771 30.642302-182.290666 30.642302-136.706506 0-211.346833-50.296592-73.858753-51.055179-73.858752-134.338796 0-59.721456 44.779598-105.282629 45.58416-46.365734 114.707494-46.365735 51.85974 0 84.088178 24.366722 32.205451 24.366722 32.205451 61.284605 0 38.481031-25.148297 62.066179-25.125309 22.780586-52.641314 22.780586-80.134333 0-80.134333 42.434876 0 32.205451 40.84874 58.135321 40.871728 25.148296 105.28263 25.148296 167.348808 0 275.803708-210.565258 73.835765-150.085215 157.14237-278.930005z" fill="#0a27f6" p-id="13288"></path></svg>